<svg xmlns="http://www.w3.org/2000/svg" class="svg-logo" width="2400" height="2400" viewBox="0 0 630 430" style="height: auto;"><rect width="630" height="630" y="-100" rx="0" ry="0" fill="transparent" fill-opacity="0"></rect><g data-element="wrapper" transform="translate(78.74999999999699 39.49999999999777) scale(0.7500000000000095)"><g ><g data-element="icon" transform="scale(0.1597474478824168) translate(206.0728083716499 1045.8744143295205)"><path id="color_x5F_2_38_" d="M206.617,216.327c-1.4-2.7-2.9-5.4-4.4-8c5.5-0.7,10.9-1.1,16.3-1.3    c44.5-2.3,91.3,1.1,133.1,17.3c17,6.6,32.9,15.3,47.5,26.1c-28-3.3-56.4-2.7-83.5,5.1c-30.1-3.9-60.7-1.7-91.2-0.3    C219.417,241.927,213.417,228.927,206.617,216.327z M324.917,276.126c7.9,13.1,20.7,22.5,35.6,27.7c5,1.7,10.2,2.9,15.5,3.7    c9.5,1.4,20.3,2.8,30.3,2c-2.2-1.9-4.3-4.1-5.8-5.3c-6.8-5.2-14.2-9.8-21.9-13.5c-14.7-7-30.5-11.3-46.6-13.601    C329.717,276.727,327.317,276.426,324.917,276.126z M127.317,247.027c1.9-8.6,4.5-17.1,7.5-25.4c-12.8,3.9-25.4,8.6-37.8,14    c6.5,2.4,13,5.2,19.5,7.7C120.117,244.727,123.717,245.927,127.317,247.027z M219.617,255.327c-8.7-16.1-19.2-31.2-30.4-45.6    c-14.6,2-29,4.9-43.2,8.8c-5.5,9.6-10.1,19.6-14.1,30C160.517,256.427,190.017,256.527,219.617,255.327z M535.317,292.827    c5.2,2.8,11.2,4.6,17.3,5c2,0.1,4.1,0,6.1-0.2c-2.9-3.4-6.2-6.5-9.3-9.1c-8.9-7.4-19.3-13-30.2-17c0.5,3.3,1.7,6.5,3.6,9.5    C525.717,285.827,530.217,289.827,535.317,292.827z M70.217,326.727c0,7.8-1.3,32.7-12.5,32.7s-12.5-25-12.5-32.7    c0-7.9,1.2-31.7,12-32.6C68.717,293.127,70.217,319.227,70.217,326.727z M65.217,326.827c0-4.6-0.9-20.1-7.8-19.5    c-6.4,0.6-7.2,14.7-7.2,19.5c0,4.6,0.8,19.5,7.5,19.5S65.217,331.427,65.217,326.827z M305.917,357.527c0,11.8-3.6,40.9-20.6,40.9    c-17.1,0-20.6-29-20.6-40.9s3.6-40.9,20.6-40.9S305.917,345.828,305.917,357.527z M297.217,357.527c0-6.8-2.1-23.6-11.9-23.6    s-11.9,16.7-11.9,23.6s2.1,23.6,11.9,23.6C295.117,381.127,297.217,364.328,297.217,357.527z" fill="#000000" fill-opacity="1"></path> <path id="color_x5F_1_50_" d="M32.016,336.526c7.5-3.799,0.6-15.099-0.8-20.399c-2.5-9.6-4.1-19.5-5.5-29.4    c-2.2-15.9-3.8-35.6,11.6-45.7c12.2-8,30.7-4.8,43.7-0.2c15.2,5.3,28.8,14.5,43.8,20.3c25.6,9.8,52.7,12,79.8,12.4    c-1.5,13.8-0.9,27.8,0.7,41.6c1,9.2,2.2,18.3,3.5,27.5c0.7,4.3,0.8,20.4,6.7,20.5c-1.7-29.6-4.4-60.7,3.9-89.5c2.4,0,4.9,0,7.3,0    c26.4-0.2,53.3-1.1,79.8,0.7c10.4,20.7,30.1,34.8,52.7,39.8c8.8,2,17.6,2.5,26.6,2.4c8.6-0.1,22.8,1.3,30.4-4.1    c0.2-0.1,0.4-0.3,0.6-0.4c-18.4-29.1-49.3-45.7-82-53.2c33.3-4.6,66.6,1.2,99.8,8.4c23.4-6.3,48.7-6.2,72.2,0.2    c1,7.1,3.9,13.9,8.3,19.1c4.7,5.7,10.8,9.7,17.3,12.2c6.5,2.4,13.4,3.4,20.2,2.9c2.8-0.3,5.4-0.8,8.1-1.5c4.2,5.5,7.2,11.8,7.1,18.5    c-0.3,23.2-40.6,22.7-56.1,23.6c-26.3,1.4-52.9,1.5-79.1-1c-13-1.2-25.9-3.2-38.7-5.8c-6.9-1.4-13.7-3.1-20.4-4.9    c-3.7-1-10.4-4.5-12.4,0.7c30.8,10,63.2,15.6,95.5,17.3c22.4,1.2,95.1,7.9,116.5-15.6c0.5,3.1,0.8,6.3,1.1,9.5    c0.6,9,0.1,18.1-1.7,27c-56.9,9.4-114.2,16.3-172,15.1c-23-0.5-45.9-2.2-68.7-4.7c2.3-19.9,2.1-40.7-4.8-59.6    c-7.3-19.9-23.8-37.2-46-37.9c-24-0.8-37,20.7-42,41.5c-3.9,16.2-5.7,35.4-3.3,52.9c-22.7-3.3-44.7-9.4-66.5-16.7    c-22.7-7.6-45.3-15.2-69.1-17.6c-1.2-13-3.1-25.9-6.6-38.5c-1.4-5.2-3.1-10.7-5.4-15.9c16.2-7.2,34.4-4.7,50.9,0.1    c5.6,1.6,43.4,15.7,45.4,8.6c-5.2-1.2-10.3-2.6-15.4-4.4c-28.7-10.1-56.7-27.4-87.5-16.3c-2-2.8-4.2-5.3-6.7-7.5    c-9.5-8.4-24.9-10.9-33.6,0c-9.3,11.6-7.1,28.3-5.6,41.9l1.7-0.1c-0.1-12.2-1.3-32.1,10.7-39.8c12.2-7.9,23.6,6.9,27.5,16.7    c9.4,23.1,6.6,48.4,8,72.6c26.2-1,50.7,3.2,76.1,9.4c25.5,6.3,50.8,11.5,76.9,13c0.6,2.9,1.2,5.8,2,8.6l15.7-4.8    c-4.9-16-4.1-35.8-1.8-52.2c2-14.3,6.9-34.6,23.3-38.4c15.3-3.4,29.7,6.6,37.7,18.8c8.8,13.5,12.1,29.9,13.3,45.8    c0.7,9.2,0.5,19,0,28.3c64.3,12.3,172.3,12.5,250.8-15c3.6-3.8,3.4-13,3.8-17.8c0.6-7.7,0.5-15.4-0.4-23.1c-0.5-4-1.1-8.1-2-12.1    c0.6-5.5-0.6-12.1-4.1-19.7c-10.5-22.9-36.2-36.4-59.4-42.7c-26.2-7.1-54.4-7-80.8-1.4c-6.4-1.4-12.8-2.7-19.3-3.8    c-30.6-32.8-72.7-51.3-116.6-59c-47.8-8.3-98.8-6.9-145.5,6.9c-23.9,7-46.9,17.4-67.5,31.3c-5.6-1.6-11.3-2.7-17.4-3    c-13.8-0.7-30,1.5-40.1,12c-11.6,12-10.7,29.7-8.7,45C21.816,303.026,24.417,320.826,32.016,336.526z M549.417,288.527    c3.1,2.6,6.4,5.7,9.3,9.1c-2,0.2-4.1,0.3-6.1,0.2c-6.1-0.4-12.1-2.2-17.3-5c-5.1-3-9.6-7-12.5-11.8c-1.9-3-3.1-6.2-3.6-9.5    C530.117,275.527,540.517,281.127,549.417,288.527z M378.617,290.727c7.7,3.7,15.1,8.3,21.9,13.5c1.5,1.2,3.6,3.4,5.8,5.3    c-10,0.8-20.8-0.6-30.3-2c-5.3-0.8-10.5-2-15.5-3.7c-14.9-5.2-27.7-14.6-35.6-27.7c2.4,0.3,4.8,0.6,7.1,1    C348.117,279.427,363.917,283.727,378.617,290.727z M218.517,207.027c44.5-2.3,91.3,1.1,133.1,17.3c17,6.6,32.9,15.3,47.5,26.1    c-28-3.3-56.4-2.7-83.5,5.1c-30.1-3.9-60.7-1.7-91.2-0.3c-5-13.3-11-26.3-17.8-38.9c-1.4-2.7-2.9-5.4-4.4-8    C207.717,207.627,213.117,207.227,218.517,207.027z M189.217,209.727c11.2,14.4,21.7,29.5,30.4,45.6c-29.6,1.2-59.1,1.1-87.7-6.8    c4-10.4,8.6-20.4,14.1-30C160.217,214.627,174.617,211.727,189.217,209.727z M134.817,221.627c-3,8.3-5.6,16.8-7.5,25.4    c-3.6-1.1-7.2-2.3-10.8-3.7c-6.5-2.5-13-5.3-19.5-7.7C109.417,230.227,122.017,225.527,134.817,221.627z M78.817,326.827    c0-10.4-1.2-21.1-4.8-31c-2.1-5.7-5.4-13.1-11.4-15.5c-12-4.8-18.3,14.6-20.3,22.7c-4.2,17.2-4,37.1,1.8,53.9    c3,8.8,11.6,23.4,22.1,14C77.317,361.027,78.817,340.527,78.817,326.827z M57.717,359.427c-11.2,0-12.5-25-12.5-32.7    c0-7.9,1.2-31.7,12-32.6c11.5-1,13,25.1,13,32.6C70.217,334.527,68.917,359.427,57.717,359.427z M65.217,326.827    c0,4.6-0.8,19.5-7.5,19.5s-7.5-14.9-7.5-19.5c0-4.8,0.8-18.9,7.2-19.5C64.317,306.727,65.217,322.227,65.217,326.827z     M110.017,364.927c-5.8,10.2-13.2,9.1-23.2,9.1c-7.2,0-14.4,0-21.6,0c4.4-0.4,8.9-6.1,11.1-10.3    C87.517,362.327,99.017,362.127,110.017,364.927z M318.717,357.526c0-18.199-5.9-46.399-26-53c-16.8-5.5-29.1,11.4-34,25.1    c-7.1,19.5-6.5,43.6,2.8,62.3c6.7,13.4,21,25.4,36,16.3C313.717,398.327,318.717,375.026,318.717,357.526z M285.317,398.427    c-17.1,0-20.6-29-20.6-40.9s3.6-40.9,20.6-40.9s20.6,29.2,20.6,40.9C305.917,369.327,302.317,398.427,285.317,398.427z     M297.217,357.527c0,6.8-2.1,23.6-11.9,23.6c-9.8,0-11.9-16.7-11.9-23.6s2.1-23.6,11.9-23.6S297.217,350.727,297.217,357.527z     M338.217,393.927c2.8,0.7,6,1.4,8.9,2.6c-2.5,5-6.8,12.4-12.9,13.5c-3,0.5-6.7,0-9.8,0c-8.2,0-16.3,0-24.5,0    c3.7,0,12.5-8.6,16.1-18.5C323.417,392.927,330.917,392.127,338.217,393.927z M428.417,366.727c-14.9-2.1-29.6-5.5-43.7-10.4    l0.5-1.8c14.6,2.9,29.2,5.1,43.9,6.4c14.7,1.4,29.5,1.8,44.2,1.5c7.4-0.2,14.7-0.6,22.1-1.1c3.7-0.3,7.3-0.6,11-1    c3.7-0.3,7.3-0.7,11-1.2c14.7-1.8,29.3-4.3,43.8-7.3l0.9,3.3c-14.2,4.6-28.9,7.9-43.7,10.3c-3.7,0.6-7.4,1.1-11.1,1.6    s-7.5,0.8-11.2,1.2c-7.5,0.7-15,1-22.5,1.2C458.617,369.727,443.617,368.927,428.417,366.727z" fill="#000000" fill-opacity="1"></path></g><path d="M183.15 228.48L183.15 240L140.84 240L140.84 177.09L183.02 177.09L183.02 188.61L152.36 188.61L152.36 228.48L183.15 228.48ZM173.42 201.28L173.42 212.80L155.56 212.80L155.56 201.28L173.42 201.28ZM202.86 177.22L221.68 240.13L209.64 240.13L190.83 177.22L202.86 177.22ZM244.27 177.22L244.27 177.22L225.39 240.13L225.00 240.13L219.24 220.67L232.24 177.22L244.27 177.22ZM261.23 177.34L287.15 177.34L287.15 188.61L250.67 188.74L250.67 187.90Q250.67 185.73 251.50 183.81Q252.33 181.89 253.77 180.45Q255.21 179.01 257.13 178.18Q259.05 177.34 261.23 177.34L261.23 177.34ZM262.19 192L262.19 228.48L287.15 228.48L287.15 240L261.23 240Q259.05 240 257.13 239.17Q255.21 238.34 253.77 236.90Q252.33 235.46 251.50 233.54Q250.67 231.62 250.67 229.44L250.67 229.44L250.67 192L262.19 192ZM333.36 220.54L321.84 220.54L321.84 196.10L306.99 196.10L306.99 228.48L321.84 228.48L321.84 223.74L333.36 223.74L333.36 230.21Q333.36 232.26 332.59 234.02Q331.82 235.78 330.48 237.12Q329.13 238.46 327.34 239.23Q325.55 240 323.56 240L323.56 240L305.32 240Q303.28 240 301.48 239.23Q299.69 238.46 298.35 237.12Q297.00 235.78 296.24 233.98Q295.47 232.19 295.47 230.14L295.47 230.14L295.47 194.43Q295.47 192.38 296.24 190.59Q297.00 188.80 298.35 187.46Q299.69 186.11 301.48 185.34Q303.28 184.58 305.32 184.58L305.32 184.58L323.56 184.58Q325.55 184.58 327.34 185.34Q329.13 186.11 330.48 187.46Q331.82 188.80 332.59 190.59Q333.36 192.38 333.36 194.37L333.36 194.37L333.36 220.54ZM364.91 218.56L364.91 218.56L376.43 218.56L376.43 224.64L364.91 224.64L364.91 218.56ZM397.68 184.51L397.68 184.51L397.68 240L386.16 240L386.16 198.66L376.43 208.96L376.43 215.36L364.91 215.36L364.91 208.90L355.12 198.66L355.12 240L343.60 240L343.60 184.51L357.55 184.51L370.67 198.27L383.79 184.51L397.68 184.51ZM418.16 195.71L418.16 240L406.64 240L406.64 184.19L433.64 184.19Q436.01 184.19 438.09 185.09Q440.17 185.98 441.71 187.52Q443.24 189.06 444.14 191.14Q445.04 193.22 445.04 195.58L445.04 195.58L445.04 205.31Q445.04 207.68 444.14 209.76Q443.24 211.84 441.71 213.38Q440.17 214.91 438.09 215.81Q436.01 216.70 433.64 216.70L433.64 216.70L421.55 216.70L421.55 205.18L433.52 205.18L433.52 195.71L418.16 195.71ZM474.60 184.32L493.36 240L481.20 240L468.52 202.43L462.76 219.52L470.89 219.52L474.80 231.04L458.92 231.04L455.92 240L443.76 240L462.44 184.32L474.60 184.32ZM531.12 215.87L540.33 239.87L527.98 239.87L519.15 216.83L514.60 216.83L514.60 205.31L526.44 205.31L526.44 195.97L511.28 195.97L511.28 239.87L499.76 239.87L499.76 184.45L526.64 184.45Q529.00 184.45 531.05 185.34Q533.10 186.24 534.64 187.78Q536.17 189.31 537.07 191.36Q537.96 193.41 537.96 195.78L537.96 195.78L537.96 205.44Q537.96 208.96 536.08 211.78Q534.19 214.59 531.12 215.87L531.12 215.87ZM585.84 228.48L585.84 240L548.65 240L548.65 184.26L585.71 184.26L585.71 195.78L560.17 195.78L560.17 228.48L585.84 228.48ZM579.63 205.06L579.63 216.58L563.69 216.58L563.69 205.06L579.63 205.06Z" data-element="company-name" data-text-path="" data-text="EVCompare" data-font-family="Laborations" fill="#000000" fill-opacity="1"></path><path d="M276.25 298.46Q273.77 298.46 271.97 297.24Q270.17 296.01 269.21 293.72Q268.24 291.43 268.24 288.24L268.24 288.24Q268.24 285.01 269.18 282.69Q270.11 280.37 271.85 279.15Q273.60 277.93 275.99 277.93L275.99 277.93Q278.44 277.93 280.18 279.01Q281.92 280.09 282.90 282.04L282.90 282.04L281.17 283.05Q280.25 281.35 279.01 280.62Q277.77 279.88 275.99 279.88L275.99 279.88Q273.42 279.88 271.97 282.09Q270.52 284.29 270.52 288.21L270.52 288.21Q270.52 290.77 271.18 292.64Q271.84 294.52 273.08 295.51Q274.32 296.50 275.96 296.50L275.96 296.50Q278.00 296.50 279.14 295.60Q280.28 294.69 281.26 292.76L281.26 292.76L283.07 293.85Q282.04 296.10 280.32 297.28Q278.61 298.46 276.25 298.46L276.25 298.46ZM291.77 298.46Q289.84 298.46 288.31 297.54Q286.79 296.62 285.92 294.96Q285.06 293.31 285.06 291.23L285.06 291.23Q285.06 289.16 285.91 287.53Q286.76 285.90 288.27 284.98Q289.78 284.06 291.71 284.06L291.71 284.06Q293.64 284.06 295.17 284.98Q296.69 285.90 297.56 287.55Q298.42 289.19 298.42 291.26L298.42 291.26Q298.42 293.33 297.57 294.98Q296.72 296.62 295.21 297.54Q293.70 298.46 291.77 298.46L291.77 298.46ZM291.71 296.68Q293.09 296.68 294.17 295.98Q295.25 295.29 295.86 294.05Q296.46 292.82 296.46 291.26L296.46 291.26Q296.46 289.71 295.86 288.47Q295.25 287.23 294.17 286.54Q293.09 285.85 291.71 285.85L291.71 285.85Q290.36 285.85 289.29 286.54Q288.23 287.23 287.62 288.45Q287.02 289.68 287.02 291.23L287.02 291.23Q287.02 292.82 287.62 294.05Q288.23 295.29 289.29 295.98Q290.36 296.68 291.71 296.68L291.71 296.68ZM315.53 284.06Q317.40 284.06 318.64 285.37Q319.88 286.68 319.88 288.99L319.88 288.99L319.88 298L317.92 298L317.92 289.85Q317.92 287.72 317.11 286.78Q316.31 285.85 315.01 285.85L315.01 285.85Q313.43 285.85 312.55 287.07Q311.67 288.29 311.53 290.40L311.53 290.40L311.53 298L309.57 298L309.57 289.85Q309.57 287.72 308.76 286.78Q307.96 285.85 306.66 285.85L306.66 285.85Q304.90 285.85 304.02 287.32Q303.15 288.78 303.15 291.26L303.15 291.26L303.15 298L301.19 298L301.19 284.52L303.15 284.52L303.15 286.62Q303.81 285.39 304.83 284.72Q305.85 284.06 307.18 284.06L307.18 284.06Q308.65 284.06 309.74 284.85Q310.84 285.64 311.27 287.11L311.27 287.11Q311.90 285.67 313.00 284.87Q314.09 284.06 315.53 284.06L315.53 284.06ZM330.05 284.06Q331.97 284.06 333.50 284.98Q335.03 285.90 335.89 287.55Q336.76 289.19 336.76 291.29L336.76 291.29Q336.76 293.36 335.91 294.99Q335.06 296.62 333.54 297.54Q332.03 298.46 330.10 298.46L330.10 298.46Q328.63 298.46 327.41 297.81Q326.19 297.16 325.35 295.98L325.35 295.98L325.35 303.76L323.39 303.76L323.39 284.52L325.35 284.52L325.35 286.51Q326.19 285.36 327.40 284.71Q328.61 284.06 330.05 284.06L330.05 284.06ZM330.10 296.68Q331.46 296.68 332.52 295.98Q333.59 295.29 334.19 294.07Q334.80 292.84 334.80 291.29L334.80 291.29Q334.80 289.71 334.19 288.47Q333.59 287.23 332.52 286.54Q331.46 285.85 330.10 285.85L330.10 285.85Q328.72 285.85 327.64 286.54Q326.56 287.23 325.96 288.47Q325.35 289.71 325.35 291.26L325.35 291.26Q325.35 292.82 325.96 294.05Q326.56 295.29 327.64 295.98Q328.72 296.68 330.10 296.68L330.10 296.68ZM350.09 284.52L352.05 284.52L352.05 298L350.09 298L350.09 296.01Q349.25 297.16 348.05 297.81Q346.84 298.46 345.40 298.46L345.40 298.46Q343.47 298.46 341.94 297.54Q340.41 296.62 339.55 294.98Q338.69 293.33 338.69 291.23L338.69 291.23Q338.69 289.16 339.53 287.53Q340.38 285.90 341.90 284.98Q343.41 284.06 345.34 284.06L345.34 284.06Q346.81 284.06 348.03 284.71Q349.25 285.36 350.09 286.54L350.09 286.54L350.09 284.52ZM345.34 296.68Q346.72 296.68 347.80 295.98Q348.88 295.29 349.49 294.05Q350.09 292.82 350.09 291.26L350.09 291.26Q350.09 289.71 349.49 288.47Q348.88 287.23 347.80 286.54Q346.72 285.85 345.34 285.85L345.34 285.85Q343.98 285.85 342.92 286.54Q341.85 287.23 341.25 288.45Q340.64 289.68 340.64 291.23L340.64 291.23Q340.64 292.82 341.25 294.05Q341.85 295.29 342.92 295.98Q343.98 296.68 345.34 296.68L345.34 296.68ZM362.30 284.06Q362.99 284.06 363.63 284.26L363.63 284.26L363.63 286.05Q363.02 285.76 362.30 285.76L362.30 285.76Q361.06 285.76 360.00 286.45Q358.93 287.14 358.28 288.45Q357.64 289.76 357.64 291.55L357.64 291.55L357.64 298L355.68 298L355.68 284.52L357.64 284.52L357.64 287.23Q358.41 285.73 359.61 284.90Q360.80 284.06 362.30 284.06L362.30 284.06ZM370.97 284.06Q372.78 284.06 374.25 284.95Q375.72 285.85 376.56 287.39Q377.39 288.93 377.39 290.83L377.39 290.83Q377.39 291.38 377.36 291.66L377.36 291.66L366.28 291.66Q366.39 293.74 367.63 295.21Q368.87 296.68 371.00 296.68L371.00 296.68Q372.73 296.68 373.86 296.03Q375.00 295.38 375.69 294.23L375.69 294.23L377.25 295.26Q376.30 296.76 374.74 297.61Q373.19 298.46 371.06 298.46L371.06 298.46Q369.10 298.46 367.57 297.54Q366.05 296.62 365.18 294.98Q364.32 293.33 364.32 291.26L364.32 291.26Q364.32 289.19 365.17 287.55Q366.02 285.90 367.53 284.98Q369.04 284.06 370.97 284.06L370.97 284.06ZM366.39 290.05L375.43 290.05Q375.15 287.95 374.02 286.90Q372.90 285.85 370.97 285.85L370.97 285.85Q369.10 285.85 367.90 287.04Q366.71 288.24 366.39 290.05L366.39 290.05ZM397.26 284.52L399.22 284.52L399.22 298L397.26 298L397.26 296.01Q396.43 297.16 395.22 297.81Q394.01 298.46 392.57 298.46L392.57 298.46Q390.64 298.46 389.11 297.54Q387.59 296.62 386.72 294.98Q385.86 293.33 385.86 291.23L385.86 291.23Q385.86 289.16 386.71 287.53Q387.56 285.90 389.07 284.98Q390.58 284.06 392.51 284.06L392.51 284.06Q393.98 284.06 395.21 284.71Q396.43 285.36 397.26 286.54L397.26 286.54L397.26 284.52ZM392.51 296.68Q393.89 296.68 394.97 295.98Q396.05 295.29 396.66 294.05Q397.26 292.82 397.26 291.26L397.26 291.26Q397.26 289.71 396.66 288.47Q396.05 287.23 394.97 286.54Q393.89 285.85 392.51 285.85L392.51 285.85Q391.16 285.85 390.09 286.54Q389.03 287.23 388.42 288.45Q387.82 289.68 387.82 291.23L387.82 291.23Q387.82 292.82 388.42 294.05Q389.03 295.29 390.09 295.98Q391.16 296.68 392.51 296.68L392.51 296.68ZM409.27 284.06Q410.69 284.06 411.88 284.64Q413.08 285.21 413.78 286.34Q414.49 287.46 414.49 288.99L414.49 288.99L414.49 298L412.53 298L412.53 289.85Q412.53 285.85 408.96 285.85L408.96 285.85Q406.88 285.85 405.85 287.32Q404.81 288.78 404.81 291.26L404.81 291.26L404.81 298L402.85 298L402.85 284.52L404.81 284.52L404.81 286.77Q405.50 285.47 406.64 284.77Q407.78 284.06 409.27 284.06L409.27 284.06ZM423.30 295.70L427.59 284.52L429.43 284.52L422.15 303.76L420.19 303.76L422.32 298.26L416.79 284.52L418.84 284.52L423.30 295.70ZM454.98 298L443.89 298L443.89 278.36L454.89 278.36L454.89 280.17L446.05 280.17L446.05 287.03L452.96 287.03L452.96 288.78L446.05 288.78L446.05 296.21L454.98 296.21L454.98 298ZM464.08 295.61L469.98 278.36L472.09 278.36L465.23 298L462.93 298L456.10 278.36L458.26 278.36L464.08 295.61Z" data-element="slogan" data-text-path="" data-text="Compare any EV" data-font-family="Didact Gothic" fill="#000000" fill-opacity="1"></path></g></g></svg>